M48
; DRILL file {KiCad 8.0.5} date 2024-11-24T20:28:28-0600
; FORMAT={2:4/ absolute / inch / suppress leading zeros}
; #@! TF.CreationDate,2024-11-24T20:28:28-06:00
; #@! TF.GenerationSoftware,Kicad,Pcbnew,8.0.5
; #@! TF.FileFunction,Plated,1,2,PTH
FMAT,2
INCH,TZ
; #@! TA.AperFunction,Plated,PTH,ViaDrill
T1C0.0118
; #@! TA.AperFunction,Plated,PTH,ComponentDrill
T2C0.0197
; #@! TA.AperFunction,Plated,PTH,ComponentDrill
T3C0.0335
%
G90
G05
T1
X56190Y-31342
X56693Y-35039
X56816Y-31565
X59094Y-31299
X60034Y-31398
X62756Y-31299
X65667Y-33780
X65748Y-34996
X65822Y-31373
X66783Y-29657
X66890Y-33465
X66912Y-37581
X68488Y-36755
X68543Y-37717
X68543Y-38031
X68740Y-37008
X68740Y-37008
X68778Y-33780
X69882Y-37205
X69882Y-37717
X70077Y-35413
T2
X58661Y-35433
X65748Y-29528
X65748Y-29921
X65748Y-30315
X65748Y-30709
X67126Y-29528
X67126Y-29921
X67126Y-30315
X67126Y-30709
X68898Y-29528
X68898Y-29921
X68898Y-30315
X68898Y-30709
X70866Y-29724
X70866Y-30118
X70866Y-30512
X70866Y-30906
T3
X61811Y-27559
X62811Y-27559
X63811Y-27559
X64126Y-39961
X64811Y-27559
X65126Y-39961
X65811Y-27559
X66126Y-39961
X66811Y-27559
X67126Y-39961
X67811Y-27559
X68126Y-39961
X68811Y-27559
X69126Y-39961
X69811Y-27559
X70126Y-39961
X70811Y-27559
X71126Y-39961
M30
