%TF.GenerationSoftware,KiCad,Pcbnew,8.0.5*%
%TF.CreationDate,2024-11-24T20:26:59-06:00*%
%TF.ProjectId,Milestone2,4d696c65-7374-46f6-9e65-322e6b696361,rev?*%
%TF.SameCoordinates,Original*%
%TF.FileFunction,Legend,Top*%
%TF.FilePolarity,Positive*%
%FSLAX46Y46*%
G04 Gerber Fmt 4.6, Leading zero omitted, Abs format (unit mm)*
G04 Created by KiCad (PCBNEW 8.0.5) date 2024-11-24 20:26:59*
%MOMM*%
%LPD*%
G01*
G04 APERTURE LIST*
%ADD10C,0.150000*%
%ADD11C,0.120000*%
%ADD12C,0.127000*%
%ADD13C,0.200000*%
G04 APERTURE END LIST*
D10*
X155333333Y-91634819D02*
X155000000Y-91158628D01*
X154761905Y-91634819D02*
X154761905Y-90634819D01*
X154761905Y-90634819D02*
X155142857Y-90634819D01*
X155142857Y-90634819D02*
X155238095Y-90682438D01*
X155238095Y-90682438D02*
X155285714Y-90730057D01*
X155285714Y-90730057D02*
X155333333Y-90825295D01*
X155333333Y-90825295D02*
X155333333Y-90968152D01*
X155333333Y-90968152D02*
X155285714Y-91063390D01*
X155285714Y-91063390D02*
X155238095Y-91111009D01*
X155238095Y-91111009D02*
X155142857Y-91158628D01*
X155142857Y-91158628D02*
X154761905Y-91158628D01*
X156190476Y-90968152D02*
X156190476Y-91634819D01*
X155952381Y-90587200D02*
X155714286Y-91301485D01*
X155714286Y-91301485D02*
X156333333Y-91301485D01*
X159004819Y-101761904D02*
X159814342Y-101761904D01*
X159814342Y-101761904D02*
X159909580Y-101714285D01*
X159909580Y-101714285D02*
X159957200Y-101666666D01*
X159957200Y-101666666D02*
X160004819Y-101571428D01*
X160004819Y-101571428D02*
X160004819Y-101380952D01*
X160004819Y-101380952D02*
X159957200Y-101285714D01*
X159957200Y-101285714D02*
X159909580Y-101238095D01*
X159909580Y-101238095D02*
X159814342Y-101190476D01*
X159814342Y-101190476D02*
X159004819Y-101190476D01*
X160004819Y-100190476D02*
X160004819Y-100761904D01*
X160004819Y-100476190D02*
X159004819Y-100476190D01*
X159004819Y-100476190D02*
X159147676Y-100571428D01*
X159147676Y-100571428D02*
X159242914Y-100666666D01*
X159242914Y-100666666D02*
X159290533Y-100761904D01*
X131020833Y-78929580D02*
X130973214Y-78977200D01*
X130973214Y-78977200D02*
X130830357Y-79024819D01*
X130830357Y-79024819D02*
X130735119Y-79024819D01*
X130735119Y-79024819D02*
X130592262Y-78977200D01*
X130592262Y-78977200D02*
X130497024Y-78881961D01*
X130497024Y-78881961D02*
X130449405Y-78786723D01*
X130449405Y-78786723D02*
X130401786Y-78596247D01*
X130401786Y-78596247D02*
X130401786Y-78453390D01*
X130401786Y-78453390D02*
X130449405Y-78262914D01*
X130449405Y-78262914D02*
X130497024Y-78167676D01*
X130497024Y-78167676D02*
X130592262Y-78072438D01*
X130592262Y-78072438D02*
X130735119Y-78024819D01*
X130735119Y-78024819D02*
X130830357Y-78024819D01*
X130830357Y-78024819D02*
X130973214Y-78072438D01*
X130973214Y-78072438D02*
X131020833Y-78120057D01*
X131401786Y-78120057D02*
X131449405Y-78072438D01*
X131449405Y-78072438D02*
X131544643Y-78024819D01*
X131544643Y-78024819D02*
X131782738Y-78024819D01*
X131782738Y-78024819D02*
X131877976Y-78072438D01*
X131877976Y-78072438D02*
X131925595Y-78120057D01*
X131925595Y-78120057D02*
X131973214Y-78215295D01*
X131973214Y-78215295D02*
X131973214Y-78310533D01*
X131973214Y-78310533D02*
X131925595Y-78453390D01*
X131925595Y-78453390D02*
X131354167Y-79024819D01*
X131354167Y-79024819D02*
X131973214Y-79024819D01*
X167578333Y-84479580D02*
X167530714Y-84527200D01*
X167530714Y-84527200D02*
X167387857Y-84574819D01*
X167387857Y-84574819D02*
X167292619Y-84574819D01*
X167292619Y-84574819D02*
X167149762Y-84527200D01*
X167149762Y-84527200D02*
X167054524Y-84431961D01*
X167054524Y-84431961D02*
X167006905Y-84336723D01*
X167006905Y-84336723D02*
X166959286Y-84146247D01*
X166959286Y-84146247D02*
X166959286Y-84003390D01*
X166959286Y-84003390D02*
X167006905Y-83812914D01*
X167006905Y-83812914D02*
X167054524Y-83717676D01*
X167054524Y-83717676D02*
X167149762Y-83622438D01*
X167149762Y-83622438D02*
X167292619Y-83574819D01*
X167292619Y-83574819D02*
X167387857Y-83574819D01*
X167387857Y-83574819D02*
X167530714Y-83622438D01*
X167530714Y-83622438D02*
X167578333Y-83670057D01*
X168530714Y-84574819D02*
X167959286Y-84574819D01*
X168245000Y-84574819D02*
X168245000Y-83574819D01*
X168245000Y-83574819D02*
X168149762Y-83717676D01*
X168149762Y-83717676D02*
X168054524Y-83812914D01*
X168054524Y-83812914D02*
X167959286Y-83860533D01*
X151370833Y-78429580D02*
X151323214Y-78477200D01*
X151323214Y-78477200D02*
X151180357Y-78524819D01*
X151180357Y-78524819D02*
X151085119Y-78524819D01*
X151085119Y-78524819D02*
X150942262Y-78477200D01*
X150942262Y-78477200D02*
X150847024Y-78381961D01*
X150847024Y-78381961D02*
X150799405Y-78286723D01*
X150799405Y-78286723D02*
X150751786Y-78096247D01*
X150751786Y-78096247D02*
X150751786Y-77953390D01*
X150751786Y-77953390D02*
X150799405Y-77762914D01*
X150799405Y-77762914D02*
X150847024Y-77667676D01*
X150847024Y-77667676D02*
X150942262Y-77572438D01*
X150942262Y-77572438D02*
X151085119Y-77524819D01*
X151085119Y-77524819D02*
X151180357Y-77524819D01*
X151180357Y-77524819D02*
X151323214Y-77572438D01*
X151323214Y-77572438D02*
X151370833Y-77620057D01*
X152227976Y-77524819D02*
X152037500Y-77524819D01*
X152037500Y-77524819D02*
X151942262Y-77572438D01*
X151942262Y-77572438D02*
X151894643Y-77620057D01*
X151894643Y-77620057D02*
X151799405Y-77762914D01*
X151799405Y-77762914D02*
X151751786Y-77953390D01*
X151751786Y-77953390D02*
X151751786Y-78334342D01*
X151751786Y-78334342D02*
X151799405Y-78429580D01*
X151799405Y-78429580D02*
X151847024Y-78477200D01*
X151847024Y-78477200D02*
X151942262Y-78524819D01*
X151942262Y-78524819D02*
X152132738Y-78524819D01*
X152132738Y-78524819D02*
X152227976Y-78477200D01*
X152227976Y-78477200D02*
X152275595Y-78429580D01*
X152275595Y-78429580D02*
X152323214Y-78334342D01*
X152323214Y-78334342D02*
X152323214Y-78096247D01*
X152323214Y-78096247D02*
X152275595Y-78001009D01*
X152275595Y-78001009D02*
X152227976Y-77953390D01*
X152227976Y-77953390D02*
X152132738Y-77905771D01*
X152132738Y-77905771D02*
X151942262Y-77905771D01*
X151942262Y-77905771D02*
X151847024Y-77953390D01*
X151847024Y-77953390D02*
X151799405Y-78001009D01*
X151799405Y-78001009D02*
X151751786Y-78096247D01*
X166666666Y-72894819D02*
X166666666Y-73609104D01*
X166666666Y-73609104D02*
X166619047Y-73751961D01*
X166619047Y-73751961D02*
X166523809Y-73847200D01*
X166523809Y-73847200D02*
X166380952Y-73894819D01*
X166380952Y-73894819D02*
X166285714Y-73894819D01*
X167666666Y-73894819D02*
X167095238Y-73894819D01*
X167380952Y-73894819D02*
X167380952Y-72894819D01*
X167380952Y-72894819D02*
X167285714Y-73037676D01*
X167285714Y-73037676D02*
X167190476Y-73132914D01*
X167190476Y-73132914D02*
X167095238Y-73180533D01*
X155870833Y-95634819D02*
X155537500Y-95158628D01*
X155299405Y-95634819D02*
X155299405Y-94634819D01*
X155299405Y-94634819D02*
X155680357Y-94634819D01*
X155680357Y-94634819D02*
X155775595Y-94682438D01*
X155775595Y-94682438D02*
X155823214Y-94730057D01*
X155823214Y-94730057D02*
X155870833Y-94825295D01*
X155870833Y-94825295D02*
X155870833Y-94968152D01*
X155870833Y-94968152D02*
X155823214Y-95063390D01*
X155823214Y-95063390D02*
X155775595Y-95111009D01*
X155775595Y-95111009D02*
X155680357Y-95158628D01*
X155680357Y-95158628D02*
X155299405Y-95158628D01*
X156823214Y-95634819D02*
X156251786Y-95634819D01*
X156537500Y-95634819D02*
X156537500Y-94634819D01*
X156537500Y-94634819D02*
X156442262Y-94777676D01*
X156442262Y-94777676D02*
X156347024Y-94872914D01*
X156347024Y-94872914D02*
X156251786Y-94920533D01*
X154124819Y-70761904D02*
X154934342Y-70761904D01*
X154934342Y-70761904D02*
X155029580Y-70714285D01*
X155029580Y-70714285D02*
X155077200Y-70666666D01*
X155077200Y-70666666D02*
X155124819Y-70571428D01*
X155124819Y-70571428D02*
X155124819Y-70380952D01*
X155124819Y-70380952D02*
X155077200Y-70285714D01*
X155077200Y-70285714D02*
X155029580Y-70238095D01*
X155029580Y-70238095D02*
X154934342Y-70190476D01*
X154934342Y-70190476D02*
X154124819Y-70190476D01*
X154124819Y-69238095D02*
X154124819Y-69714285D01*
X154124819Y-69714285D02*
X154601009Y-69761904D01*
X154601009Y-69761904D02*
X154553390Y-69714285D01*
X154553390Y-69714285D02*
X154505771Y-69619047D01*
X154505771Y-69619047D02*
X154505771Y-69380952D01*
X154505771Y-69380952D02*
X154553390Y-69285714D01*
X154553390Y-69285714D02*
X154601009Y-69238095D01*
X154601009Y-69238095D02*
X154696247Y-69190476D01*
X154696247Y-69190476D02*
X154934342Y-69190476D01*
X154934342Y-69190476D02*
X155029580Y-69238095D01*
X155029580Y-69238095D02*
X155077200Y-69285714D01*
X155077200Y-69285714D02*
X155124819Y-69380952D01*
X155124819Y-69380952D02*
X155124819Y-69619047D01*
X155124819Y-69619047D02*
X155077200Y-69714285D01*
X155077200Y-69714285D02*
X155029580Y-69761904D01*
X183383333Y-93829580D02*
X183335714Y-93877200D01*
X183335714Y-93877200D02*
X183192857Y-93924819D01*
X183192857Y-93924819D02*
X183097619Y-93924819D01*
X183097619Y-93924819D02*
X182954762Y-93877200D01*
X182954762Y-93877200D02*
X182859524Y-93781961D01*
X182859524Y-93781961D02*
X182811905Y-93686723D01*
X182811905Y-93686723D02*
X182764286Y-93496247D01*
X182764286Y-93496247D02*
X182764286Y-93353390D01*
X182764286Y-93353390D02*
X182811905Y-93162914D01*
X182811905Y-93162914D02*
X182859524Y-93067676D01*
X182859524Y-93067676D02*
X182954762Y-92972438D01*
X182954762Y-92972438D02*
X183097619Y-92924819D01*
X183097619Y-92924819D02*
X183192857Y-92924819D01*
X183192857Y-92924819D02*
X183335714Y-92972438D01*
X183335714Y-92972438D02*
X183383333Y-93020057D01*
X183954762Y-93353390D02*
X183859524Y-93305771D01*
X183859524Y-93305771D02*
X183811905Y-93258152D01*
X183811905Y-93258152D02*
X183764286Y-93162914D01*
X183764286Y-93162914D02*
X183764286Y-93115295D01*
X183764286Y-93115295D02*
X183811905Y-93020057D01*
X183811905Y-93020057D02*
X183859524Y-92972438D01*
X183859524Y-92972438D02*
X183954762Y-92924819D01*
X183954762Y-92924819D02*
X184145238Y-92924819D01*
X184145238Y-92924819D02*
X184240476Y-92972438D01*
X184240476Y-92972438D02*
X184288095Y-93020057D01*
X184288095Y-93020057D02*
X184335714Y-93115295D01*
X184335714Y-93115295D02*
X184335714Y-93162914D01*
X184335714Y-93162914D02*
X184288095Y-93258152D01*
X184288095Y-93258152D02*
X184240476Y-93305771D01*
X184240476Y-93305771D02*
X184145238Y-93353390D01*
X184145238Y-93353390D02*
X183954762Y-93353390D01*
X183954762Y-93353390D02*
X183859524Y-93401009D01*
X183859524Y-93401009D02*
X183811905Y-93448628D01*
X183811905Y-93448628D02*
X183764286Y-93543866D01*
X183764286Y-93543866D02*
X183764286Y-93734342D01*
X183764286Y-93734342D02*
X183811905Y-93829580D01*
X183811905Y-93829580D02*
X183859524Y-93877200D01*
X183859524Y-93877200D02*
X183954762Y-93924819D01*
X183954762Y-93924819D02*
X184145238Y-93924819D01*
X184145238Y-93924819D02*
X184240476Y-93877200D01*
X184240476Y-93877200D02*
X184288095Y-93829580D01*
X184288095Y-93829580D02*
X184335714Y-93734342D01*
X184335714Y-93734342D02*
X184335714Y-93543866D01*
X184335714Y-93543866D02*
X184288095Y-93448628D01*
X184288095Y-93448628D02*
X184240476Y-93401009D01*
X184240476Y-93401009D02*
X184145238Y-93353390D01*
X158283333Y-78179580D02*
X158235714Y-78227200D01*
X158235714Y-78227200D02*
X158092857Y-78274819D01*
X158092857Y-78274819D02*
X157997619Y-78274819D01*
X157997619Y-78274819D02*
X157854762Y-78227200D01*
X157854762Y-78227200D02*
X157759524Y-78131961D01*
X157759524Y-78131961D02*
X157711905Y-78036723D01*
X157711905Y-78036723D02*
X157664286Y-77846247D01*
X157664286Y-77846247D02*
X157664286Y-77703390D01*
X157664286Y-77703390D02*
X157711905Y-77512914D01*
X157711905Y-77512914D02*
X157759524Y-77417676D01*
X157759524Y-77417676D02*
X157854762Y-77322438D01*
X157854762Y-77322438D02*
X157997619Y-77274819D01*
X157997619Y-77274819D02*
X158092857Y-77274819D01*
X158092857Y-77274819D02*
X158235714Y-77322438D01*
X158235714Y-77322438D02*
X158283333Y-77370057D01*
X158616667Y-77274819D02*
X159283333Y-77274819D01*
X159283333Y-77274819D02*
X158854762Y-78274819D01*
X155833333Y-83634819D02*
X155500000Y-83158628D01*
X155261905Y-83634819D02*
X155261905Y-82634819D01*
X155261905Y-82634819D02*
X155642857Y-82634819D01*
X155642857Y-82634819D02*
X155738095Y-82682438D01*
X155738095Y-82682438D02*
X155785714Y-82730057D01*
X155785714Y-82730057D02*
X155833333Y-82825295D01*
X155833333Y-82825295D02*
X155833333Y-82968152D01*
X155833333Y-82968152D02*
X155785714Y-83063390D01*
X155785714Y-83063390D02*
X155738095Y-83111009D01*
X155738095Y-83111009D02*
X155642857Y-83158628D01*
X155642857Y-83158628D02*
X155261905Y-83158628D01*
X156214286Y-82730057D02*
X156261905Y-82682438D01*
X156261905Y-82682438D02*
X156357143Y-82634819D01*
X156357143Y-82634819D02*
X156595238Y-82634819D01*
X156595238Y-82634819D02*
X156690476Y-82682438D01*
X156690476Y-82682438D02*
X156738095Y-82730057D01*
X156738095Y-82730057D02*
X156785714Y-82825295D01*
X156785714Y-82825295D02*
X156785714Y-82920533D01*
X156785714Y-82920533D02*
X156738095Y-83063390D01*
X156738095Y-83063390D02*
X156166667Y-83634819D01*
X156166667Y-83634819D02*
X156785714Y-83634819D01*
X173578333Y-84479580D02*
X173530714Y-84527200D01*
X173530714Y-84527200D02*
X173387857Y-84574819D01*
X173387857Y-84574819D02*
X173292619Y-84574819D01*
X173292619Y-84574819D02*
X173149762Y-84527200D01*
X173149762Y-84527200D02*
X173054524Y-84431961D01*
X173054524Y-84431961D02*
X173006905Y-84336723D01*
X173006905Y-84336723D02*
X172959286Y-84146247D01*
X172959286Y-84146247D02*
X172959286Y-84003390D01*
X172959286Y-84003390D02*
X173006905Y-83812914D01*
X173006905Y-83812914D02*
X173054524Y-83717676D01*
X173054524Y-83717676D02*
X173149762Y-83622438D01*
X173149762Y-83622438D02*
X173292619Y-83574819D01*
X173292619Y-83574819D02*
X173387857Y-83574819D01*
X173387857Y-83574819D02*
X173530714Y-83622438D01*
X173530714Y-83622438D02*
X173578333Y-83670057D01*
X173911667Y-83574819D02*
X174530714Y-83574819D01*
X174530714Y-83574819D02*
X174197381Y-83955771D01*
X174197381Y-83955771D02*
X174340238Y-83955771D01*
X174340238Y-83955771D02*
X174435476Y-84003390D01*
X174435476Y-84003390D02*
X174483095Y-84051009D01*
X174483095Y-84051009D02*
X174530714Y-84146247D01*
X174530714Y-84146247D02*
X174530714Y-84384342D01*
X174530714Y-84384342D02*
X174483095Y-84479580D01*
X174483095Y-84479580D02*
X174435476Y-84527200D01*
X174435476Y-84527200D02*
X174340238Y-84574819D01*
X174340238Y-84574819D02*
X174054524Y-84574819D01*
X174054524Y-84574819D02*
X173959286Y-84527200D01*
X173959286Y-84527200D02*
X173911667Y-84479580D01*
X179666666Y-73394819D02*
X179666666Y-74109104D01*
X179666666Y-74109104D02*
X179619047Y-74251961D01*
X179619047Y-74251961D02*
X179523809Y-74347200D01*
X179523809Y-74347200D02*
X179380952Y-74394819D01*
X179380952Y-74394819D02*
X179285714Y-74394819D01*
X180619047Y-73394819D02*
X180142857Y-73394819D01*
X180142857Y-73394819D02*
X180095238Y-73871009D01*
X180095238Y-73871009D02*
X180142857Y-73823390D01*
X180142857Y-73823390D02*
X180238095Y-73775771D01*
X180238095Y-73775771D02*
X180476190Y-73775771D01*
X180476190Y-73775771D02*
X180571428Y-73823390D01*
X180571428Y-73823390D02*
X180619047Y-73871009D01*
X180619047Y-73871009D02*
X180666666Y-73966247D01*
X180666666Y-73966247D02*
X180666666Y-74204342D01*
X180666666Y-74204342D02*
X180619047Y-74299580D01*
X180619047Y-74299580D02*
X180571428Y-74347200D01*
X180571428Y-74347200D02*
X180476190Y-74394819D01*
X180476190Y-74394819D02*
X180238095Y-74394819D01*
X180238095Y-74394819D02*
X180142857Y-74347200D01*
X180142857Y-74347200D02*
X180095238Y-74299580D01*
X170166666Y-72894819D02*
X170166666Y-73609104D01*
X170166666Y-73609104D02*
X170119047Y-73751961D01*
X170119047Y-73751961D02*
X170023809Y-73847200D01*
X170023809Y-73847200D02*
X169880952Y-73894819D01*
X169880952Y-73894819D02*
X169785714Y-73894819D01*
X171071428Y-73228152D02*
X171071428Y-73894819D01*
X170833333Y-72847200D02*
X170595238Y-73561485D01*
X170595238Y-73561485D02*
X171214285Y-73561485D01*
X144425595Y-76654819D02*
X144425595Y-77464342D01*
X144425595Y-77464342D02*
X144473214Y-77559580D01*
X144473214Y-77559580D02*
X144520833Y-77607200D01*
X144520833Y-77607200D02*
X144616071Y-77654819D01*
X144616071Y-77654819D02*
X144806547Y-77654819D01*
X144806547Y-77654819D02*
X144901785Y-77607200D01*
X144901785Y-77607200D02*
X144949404Y-77559580D01*
X144949404Y-77559580D02*
X144997023Y-77464342D01*
X144997023Y-77464342D02*
X144997023Y-76654819D01*
X145425595Y-76750057D02*
X145473214Y-76702438D01*
X145473214Y-76702438D02*
X145568452Y-76654819D01*
X145568452Y-76654819D02*
X145806547Y-76654819D01*
X145806547Y-76654819D02*
X145901785Y-76702438D01*
X145901785Y-76702438D02*
X145949404Y-76750057D01*
X145949404Y-76750057D02*
X145997023Y-76845295D01*
X145997023Y-76845295D02*
X145997023Y-76940533D01*
X145997023Y-76940533D02*
X145949404Y-77083390D01*
X145949404Y-77083390D02*
X145377976Y-77654819D01*
X145377976Y-77654819D02*
X145997023Y-77654819D01*
X142230952Y-87654819D02*
X141754762Y-87654819D01*
X141754762Y-87654819D02*
X141754762Y-86654819D01*
X142564286Y-87131009D02*
X142897619Y-87131009D01*
X143040476Y-87654819D02*
X142564286Y-87654819D01*
X142564286Y-87654819D02*
X142564286Y-86654819D01*
X142564286Y-86654819D02*
X143040476Y-86654819D01*
X143469048Y-87654819D02*
X143469048Y-86654819D01*
X143469048Y-86654819D02*
X143707143Y-86654819D01*
X143707143Y-86654819D02*
X143850000Y-86702438D01*
X143850000Y-86702438D02*
X143945238Y-86797676D01*
X143945238Y-86797676D02*
X143992857Y-86892914D01*
X143992857Y-86892914D02*
X144040476Y-87083390D01*
X144040476Y-87083390D02*
X144040476Y-87226247D01*
X144040476Y-87226247D02*
X143992857Y-87416723D01*
X143992857Y-87416723D02*
X143945238Y-87511961D01*
X143945238Y-87511961D02*
X143850000Y-87607200D01*
X143850000Y-87607200D02*
X143707143Y-87654819D01*
X143707143Y-87654819D02*
X143469048Y-87654819D01*
X144992857Y-87654819D02*
X144421429Y-87654819D01*
X144707143Y-87654819D02*
X144707143Y-86654819D01*
X144707143Y-86654819D02*
X144611905Y-86797676D01*
X144611905Y-86797676D02*
X144516667Y-86892914D01*
X144516667Y-86892914D02*
X144421429Y-86940533D01*
X142324405Y-97304819D02*
X142324405Y-96304819D01*
X142324405Y-96304819D02*
X142562500Y-96304819D01*
X142562500Y-96304819D02*
X142705357Y-96352438D01*
X142705357Y-96352438D02*
X142800595Y-96447676D01*
X142800595Y-96447676D02*
X142848214Y-96542914D01*
X142848214Y-96542914D02*
X142895833Y-96733390D01*
X142895833Y-96733390D02*
X142895833Y-96876247D01*
X142895833Y-96876247D02*
X142848214Y-97066723D01*
X142848214Y-97066723D02*
X142800595Y-97161961D01*
X142800595Y-97161961D02*
X142705357Y-97257200D01*
X142705357Y-97257200D02*
X142562500Y-97304819D01*
X142562500Y-97304819D02*
X142324405Y-97304819D01*
X143848214Y-97304819D02*
X143276786Y-97304819D01*
X143562500Y-97304819D02*
X143562500Y-96304819D01*
X143562500Y-96304819D02*
X143467262Y-96447676D01*
X143467262Y-96447676D02*
X143372024Y-96542914D01*
X143372024Y-96542914D02*
X143276786Y-96590533D01*
X148666666Y-87894819D02*
X148666666Y-88609104D01*
X148666666Y-88609104D02*
X148619047Y-88751961D01*
X148619047Y-88751961D02*
X148523809Y-88847200D01*
X148523809Y-88847200D02*
X148380952Y-88894819D01*
X148380952Y-88894819D02*
X148285714Y-88894819D01*
X149047619Y-87894819D02*
X149666666Y-87894819D01*
X149666666Y-87894819D02*
X149333333Y-88275771D01*
X149333333Y-88275771D02*
X149476190Y-88275771D01*
X149476190Y-88275771D02*
X149571428Y-88323390D01*
X149571428Y-88323390D02*
X149619047Y-88371009D01*
X149619047Y-88371009D02*
X149666666Y-88466247D01*
X149666666Y-88466247D02*
X149666666Y-88704342D01*
X149666666Y-88704342D02*
X149619047Y-88799580D01*
X149619047Y-88799580D02*
X149571428Y-88847200D01*
X149571428Y-88847200D02*
X149476190Y-88894819D01*
X149476190Y-88894819D02*
X149190476Y-88894819D01*
X149190476Y-88894819D02*
X149095238Y-88847200D01*
X149095238Y-88847200D02*
X149047619Y-88799580D01*
X137920833Y-78929580D02*
X137873214Y-78977200D01*
X137873214Y-78977200D02*
X137730357Y-79024819D01*
X137730357Y-79024819D02*
X137635119Y-79024819D01*
X137635119Y-79024819D02*
X137492262Y-78977200D01*
X137492262Y-78977200D02*
X137397024Y-78881961D01*
X137397024Y-78881961D02*
X137349405Y-78786723D01*
X137349405Y-78786723D02*
X137301786Y-78596247D01*
X137301786Y-78596247D02*
X137301786Y-78453390D01*
X137301786Y-78453390D02*
X137349405Y-78262914D01*
X137349405Y-78262914D02*
X137397024Y-78167676D01*
X137397024Y-78167676D02*
X137492262Y-78072438D01*
X137492262Y-78072438D02*
X137635119Y-78024819D01*
X137635119Y-78024819D02*
X137730357Y-78024819D01*
X137730357Y-78024819D02*
X137873214Y-78072438D01*
X137873214Y-78072438D02*
X137920833Y-78120057D01*
X138777976Y-78358152D02*
X138777976Y-79024819D01*
X138539881Y-77977200D02*
X138301786Y-78691485D01*
X138301786Y-78691485D02*
X138920833Y-78691485D01*
X175038095Y-92529819D02*
X175038095Y-93339342D01*
X175038095Y-93339342D02*
X175085714Y-93434580D01*
X175085714Y-93434580D02*
X175133333Y-93482200D01*
X175133333Y-93482200D02*
X175228571Y-93529819D01*
X175228571Y-93529819D02*
X175419047Y-93529819D01*
X175419047Y-93529819D02*
X175514285Y-93482200D01*
X175514285Y-93482200D02*
X175561904Y-93434580D01*
X175561904Y-93434580D02*
X175609523Y-93339342D01*
X175609523Y-93339342D02*
X175609523Y-92529819D01*
X176514285Y-92863152D02*
X176514285Y-93529819D01*
X176276190Y-92482200D02*
X176038095Y-93196485D01*
X176038095Y-93196485D02*
X176657142Y-93196485D01*
X178933095Y-80754819D02*
X178933095Y-81564342D01*
X178933095Y-81564342D02*
X178980714Y-81659580D01*
X178980714Y-81659580D02*
X179028333Y-81707200D01*
X179028333Y-81707200D02*
X179123571Y-81754819D01*
X179123571Y-81754819D02*
X179314047Y-81754819D01*
X179314047Y-81754819D02*
X179409285Y-81707200D01*
X179409285Y-81707200D02*
X179456904Y-81659580D01*
X179456904Y-81659580D02*
X179504523Y-81564342D01*
X179504523Y-81564342D02*
X179504523Y-80754819D01*
X179885476Y-80754819D02*
X180504523Y-80754819D01*
X180504523Y-80754819D02*
X180171190Y-81135771D01*
X180171190Y-81135771D02*
X180314047Y-81135771D01*
X180314047Y-81135771D02*
X180409285Y-81183390D01*
X180409285Y-81183390D02*
X180456904Y-81231009D01*
X180456904Y-81231009D02*
X180504523Y-81326247D01*
X180504523Y-81326247D02*
X180504523Y-81564342D01*
X180504523Y-81564342D02*
X180456904Y-81659580D01*
X180456904Y-81659580D02*
X180409285Y-81707200D01*
X180409285Y-81707200D02*
X180314047Y-81754819D01*
X180314047Y-81754819D02*
X180028333Y-81754819D01*
X180028333Y-81754819D02*
X179933095Y-81707200D01*
X179933095Y-81707200D02*
X179885476Y-81659580D01*
X167983333Y-94329580D02*
X167935714Y-94377200D01*
X167935714Y-94377200D02*
X167792857Y-94424819D01*
X167792857Y-94424819D02*
X167697619Y-94424819D01*
X167697619Y-94424819D02*
X167554762Y-94377200D01*
X167554762Y-94377200D02*
X167459524Y-94281961D01*
X167459524Y-94281961D02*
X167411905Y-94186723D01*
X167411905Y-94186723D02*
X167364286Y-93996247D01*
X167364286Y-93996247D02*
X167364286Y-93853390D01*
X167364286Y-93853390D02*
X167411905Y-93662914D01*
X167411905Y-93662914D02*
X167459524Y-93567676D01*
X167459524Y-93567676D02*
X167554762Y-93472438D01*
X167554762Y-93472438D02*
X167697619Y-93424819D01*
X167697619Y-93424819D02*
X167792857Y-93424819D01*
X167792857Y-93424819D02*
X167935714Y-93472438D01*
X167935714Y-93472438D02*
X167983333Y-93520057D01*
X168888095Y-93424819D02*
X168411905Y-93424819D01*
X168411905Y-93424819D02*
X168364286Y-93901009D01*
X168364286Y-93901009D02*
X168411905Y-93853390D01*
X168411905Y-93853390D02*
X168507143Y-93805771D01*
X168507143Y-93805771D02*
X168745238Y-93805771D01*
X168745238Y-93805771D02*
X168840476Y-93853390D01*
X168840476Y-93853390D02*
X168888095Y-93901009D01*
X168888095Y-93901009D02*
X168935714Y-93996247D01*
X168935714Y-93996247D02*
X168935714Y-94234342D01*
X168935714Y-94234342D02*
X168888095Y-94329580D01*
X168888095Y-94329580D02*
X168840476Y-94377200D01*
X168840476Y-94377200D02*
X168745238Y-94424819D01*
X168745238Y-94424819D02*
X168507143Y-94424819D01*
X168507143Y-94424819D02*
X168411905Y-94377200D01*
X168411905Y-94377200D02*
X168364286Y-94329580D01*
X155833333Y-86924819D02*
X155500000Y-86448628D01*
X155261905Y-86924819D02*
X155261905Y-85924819D01*
X155261905Y-85924819D02*
X155642857Y-85924819D01*
X155642857Y-85924819D02*
X155738095Y-85972438D01*
X155738095Y-85972438D02*
X155785714Y-86020057D01*
X155785714Y-86020057D02*
X155833333Y-86115295D01*
X155833333Y-86115295D02*
X155833333Y-86258152D01*
X155833333Y-86258152D02*
X155785714Y-86353390D01*
X155785714Y-86353390D02*
X155738095Y-86401009D01*
X155738095Y-86401009D02*
X155642857Y-86448628D01*
X155642857Y-86448628D02*
X155261905Y-86448628D01*
X156166667Y-85924819D02*
X156785714Y-85924819D01*
X156785714Y-85924819D02*
X156452381Y-86305771D01*
X156452381Y-86305771D02*
X156595238Y-86305771D01*
X156595238Y-86305771D02*
X156690476Y-86353390D01*
X156690476Y-86353390D02*
X156738095Y-86401009D01*
X156738095Y-86401009D02*
X156785714Y-86496247D01*
X156785714Y-86496247D02*
X156785714Y-86734342D01*
X156785714Y-86734342D02*
X156738095Y-86829580D01*
X156738095Y-86829580D02*
X156690476Y-86877200D01*
X156690476Y-86877200D02*
X156595238Y-86924819D01*
X156595238Y-86924819D02*
X156309524Y-86924819D01*
X156309524Y-86924819D02*
X156214286Y-86877200D01*
X156214286Y-86877200D02*
X156166667Y-86829580D01*
X174666666Y-72894819D02*
X174666666Y-73609104D01*
X174666666Y-73609104D02*
X174619047Y-73751961D01*
X174619047Y-73751961D02*
X174523809Y-73847200D01*
X174523809Y-73847200D02*
X174380952Y-73894819D01*
X174380952Y-73894819D02*
X174285714Y-73894819D01*
X175095238Y-72990057D02*
X175142857Y-72942438D01*
X175142857Y-72942438D02*
X175238095Y-72894819D01*
X175238095Y-72894819D02*
X175476190Y-72894819D01*
X175476190Y-72894819D02*
X175571428Y-72942438D01*
X175571428Y-72942438D02*
X175619047Y-72990057D01*
X175619047Y-72990057D02*
X175666666Y-73085295D01*
X175666666Y-73085295D02*
X175666666Y-73180533D01*
X175666666Y-73180533D02*
X175619047Y-73323390D01*
X175619047Y-73323390D02*
X175047619Y-73894819D01*
X175047619Y-73894819D02*
X175666666Y-73894819D01*
D11*
%TO.C,R4*%
X154772936Y-92090000D02*
X156227064Y-92090000D01*
X154772936Y-93910000D02*
X156227064Y-93910000D01*
%TO.C,U1*%
X161550000Y-102830000D02*
X161550000Y-101500000D01*
X162880000Y-102830000D02*
X161550000Y-102830000D01*
X164150000Y-100170000D02*
X181990000Y-100170000D01*
X164150000Y-102830000D02*
X164150000Y-100170000D01*
X164150000Y-102830000D02*
X181990000Y-102830000D01*
X181990000Y-102830000D02*
X181990000Y-100170000D01*
%TO.C,C2*%
X130926248Y-79515000D02*
X131448752Y-79515000D01*
X130926248Y-80985000D02*
X131448752Y-80985000D01*
%TO.C,C1*%
X167483748Y-85065000D02*
X168006252Y-85065000D01*
X167483748Y-86535000D02*
X168006252Y-86535000D01*
%TO.C,C6*%
X151276248Y-79015000D02*
X151798752Y-79015000D01*
X151276248Y-80485000D02*
X151798752Y-80485000D01*
%TO.C,J1*%
X166305000Y-74315000D02*
X167000000Y-74315000D01*
X166305000Y-75000000D02*
X166305000Y-74315000D01*
X166305000Y-75685000D02*
X166305000Y-78560000D01*
X166305000Y-75685000D02*
X166391724Y-75685000D01*
X166305000Y-78560000D02*
X166605507Y-78560000D01*
X167394493Y-78560000D02*
X167695000Y-78560000D01*
X167608276Y-75685000D02*
X167695000Y-75685000D01*
X167695000Y-75685000D02*
X167695000Y-78560000D01*
%TO.C,R1*%
X155310436Y-96090000D02*
X156764564Y-96090000D01*
X155310436Y-97910000D02*
X156764564Y-97910000D01*
%TO.C,U5*%
X155670000Y-71330000D02*
X155670000Y-70000000D01*
X157000000Y-71330000D02*
X155670000Y-71330000D01*
X158270000Y-68670000D02*
X181190000Y-68670000D01*
X158270000Y-71330000D02*
X158270000Y-68670000D01*
X158270000Y-71330000D02*
X181190000Y-71330000D01*
X181190000Y-71330000D02*
X181190000Y-68670000D01*
%TO.C,C8*%
X183288748Y-94415000D02*
X183811252Y-94415000D01*
X183288748Y-95885000D02*
X183811252Y-95885000D01*
%TO.C,C7*%
X158188748Y-78765000D02*
X158711252Y-78765000D01*
X158188748Y-80235000D02*
X158711252Y-80235000D01*
%TO.C,R2*%
X155272936Y-84090000D02*
X156727064Y-84090000D01*
X155272936Y-85910000D02*
X156727064Y-85910000D01*
%TO.C,C3*%
X173483748Y-85065000D02*
X174006252Y-85065000D01*
X173483748Y-86535000D02*
X174006252Y-86535000D01*
%TO.C,J5*%
X179305000Y-74815000D02*
X180000000Y-74815000D01*
X179305000Y-75500000D02*
X179305000Y-74815000D01*
X179305000Y-76185000D02*
X179305000Y-79060000D01*
X179305000Y-76185000D02*
X179391724Y-76185000D01*
X179305000Y-79060000D02*
X179605507Y-79060000D01*
X180394493Y-79060000D02*
X180695000Y-79060000D01*
X180608276Y-76185000D02*
X180695000Y-76185000D01*
X180695000Y-76185000D02*
X180695000Y-79060000D01*
%TO.C,J4*%
X169805000Y-74315000D02*
X170500000Y-74315000D01*
X169805000Y-75000000D02*
X169805000Y-74315000D01*
X169805000Y-75685000D02*
X169805000Y-78560000D01*
X169805000Y-75685000D02*
X169891724Y-75685000D01*
X169805000Y-78560000D02*
X170105507Y-78560000D01*
X170894493Y-78560000D02*
X171195000Y-78560000D01*
X171108276Y-75685000D02*
X171195000Y-75685000D01*
X171195000Y-75685000D02*
X171195000Y-78560000D01*
%TO.C,U2*%
X145187500Y-78040000D02*
X144187500Y-78040000D01*
X145187500Y-78040000D02*
X146187500Y-78040000D01*
X145187500Y-82460000D02*
X144187500Y-82460000D01*
X145187500Y-82460000D02*
X146187500Y-82460000D01*
X143662500Y-78065000D02*
X143422500Y-77735000D01*
X143902500Y-77735000D01*
X143662500Y-78065000D01*
G36*
X143662500Y-78065000D02*
G01*
X143422500Y-77735000D01*
X143902500Y-77735000D01*
X143662500Y-78065000D01*
G37*
%TO.C,LED1*%
X141950000Y-88000000D02*
X144750000Y-88000000D01*
X141950000Y-90000000D02*
X141950000Y-88000000D01*
X144750000Y-88000000D02*
X144750000Y-90000000D01*
X144750000Y-90000000D02*
X141950000Y-90000000D01*
%TO.C,D1*%
X141377500Y-97540000D02*
X141377500Y-99460000D01*
X141377500Y-99460000D02*
X144062500Y-99460000D01*
X144062500Y-97540000D02*
X141377500Y-97540000D01*
%TO.C,J3*%
X148305000Y-89315000D02*
X149000000Y-89315000D01*
X148305000Y-90000000D02*
X148305000Y-89315000D01*
X148305000Y-90685000D02*
X148305000Y-90560000D01*
X148305000Y-90685000D02*
X148391724Y-90685000D01*
X148305000Y-90685000D02*
X149695000Y-90685000D01*
X149608276Y-90685000D02*
X149695000Y-90685000D01*
X149695000Y-90685000D02*
X149695000Y-90560000D01*
%TO.C,C4*%
X137826248Y-79515000D02*
X138348752Y-79515000D01*
X137826248Y-80985000D02*
X138348752Y-80985000D01*
%TO.C,U4*%
X177300000Y-93975000D02*
X174300000Y-93975000D01*
X177300000Y-96975000D02*
X174300000Y-96975000D01*
X173950000Y-94075000D02*
X173710000Y-93745000D01*
X174190000Y-93745000D01*
X173950000Y-94075000D01*
G36*
X173950000Y-94075000D02*
G01*
X173710000Y-93745000D01*
X174190000Y-93745000D01*
X173950000Y-94075000D01*
G37*
D12*
%TO.C,U3*%
X178300000Y-88914000D02*
X181700000Y-88914000D01*
X181700000Y-83086000D02*
X178300000Y-83086000D01*
D13*
X177739460Y-83512190D02*
G75*
G02*
X177539460Y-83512190I-100000J0D01*
G01*
X177539460Y-83512190D02*
G75*
G02*
X177739460Y-83512190I100000J0D01*
G01*
D11*
%TO.C,C5*%
X167888748Y-94915000D02*
X168411252Y-94915000D01*
X167888748Y-96385000D02*
X168411252Y-96385000D01*
%TO.C,R3*%
X155272936Y-87380000D02*
X156727064Y-87380000D01*
X155272936Y-89200000D02*
X156727064Y-89200000D01*
%TO.C,J2*%
X174305000Y-74315000D02*
X175000000Y-74315000D01*
X174305000Y-75000000D02*
X174305000Y-74315000D01*
X174305000Y-75685000D02*
X174305000Y-78560000D01*
X174305000Y-75685000D02*
X174391724Y-75685000D01*
X174305000Y-78560000D02*
X174605507Y-78560000D01*
X175394493Y-78560000D02*
X175695000Y-78560000D01*
X175608276Y-75685000D02*
X175695000Y-75685000D01*
X175695000Y-75685000D02*
X175695000Y-78560000D01*
%TD*%
M02*
