%TF.GenerationSoftware,KiCad,Pcbnew,8.0.5*%
%TF.CreationDate,2024-11-24T20:26:59-06:00*%
%TF.ProjectId,Milestone2,4d696c65-7374-46f6-9e65-322e6b696361,rev?*%
%TF.SameCoordinates,Original*%
%TF.FileFunction,Copper,L1,Top*%
%TF.FilePolarity,Positive*%
%FSLAX46Y46*%
G04 Gerber Fmt 4.6, Leading zero omitted, Abs format (unit mm)*
G04 Created by KiCad (PCBNEW 8.0.5) date 2024-11-24 20:26:59*
%MOMM*%
%LPD*%
G01*
G04 APERTURE LIST*
G04 Aperture macros list*
%AMRoundRect*
0 Rectangle with rounded corners*
0 $1 Rounding radius*
0 $2 $3 $4 $5 $6 $7 $8 $9 X,Y pos of 4 corners*
0 Add a 4 corners polygon primitive as box body*
4,1,4,$2,$3,$4,$5,$6,$7,$8,$9,$2,$3,0*
0 Add four circle primitives for the rounded corners*
1,1,$1+$1,$2,$3*
1,1,$1+$1,$4,$5*
1,1,$1+$1,$6,$7*
1,1,$1+$1,$8,$9*
0 Add four rect primitives between the rounded corners*
20,1,$1+$1,$2,$3,$4,$5,0*
20,1,$1+$1,$4,$5,$6,$7,0*
20,1,$1+$1,$6,$7,$8,$9,0*
20,1,$1+$1,$8,$9,$2,$3,0*%
G04 Aperture macros list end*
%TA.AperFunction,EtchedComponent*%
%ADD10C,0.000000*%
%TD*%
%TA.AperFunction,SMDPad,CuDef*%
%ADD11RoundRect,0.250000X-0.312500X-0.625000X0.312500X-0.625000X0.312500X0.625000X-0.312500X0.625000X0*%
%TD*%
%TA.AperFunction,ComponentPad*%
%ADD12C,1.422000*%
%TD*%
%TA.AperFunction,SMDPad,CuDef*%
%ADD13RoundRect,0.250000X-0.250000X-0.475000X0.250000X-0.475000X0.250000X0.475000X-0.250000X0.475000X0*%
%TD*%
%TA.AperFunction,ComponentPad*%
%ADD14R,0.850000X0.850000*%
%TD*%
%TA.AperFunction,ComponentPad*%
%ADD15O,0.850000X0.850000*%
%TD*%
%TA.AperFunction,SMDPad,CuDef*%
%ADD16RoundRect,0.087500X-0.650000X-0.087500X0.650000X-0.087500X0.650000X0.087500X-0.650000X0.087500X0*%
%TD*%
%TA.AperFunction,SMDPad,CuDef*%
%ADD17R,1.000000X1.500000*%
%TD*%
%TA.AperFunction,SMDPad,CuDef*%
%ADD18RoundRect,0.243750X-0.243750X-0.456250X0.243750X-0.456250X0.243750X0.456250X-0.243750X0.456250X0*%
%TD*%
%TA.AperFunction,SMDPad,CuDef*%
%ADD19R,1.600000X0.300000*%
%TD*%
%TA.AperFunction,SMDPad,CuDef*%
%ADD20RoundRect,0.100000X-0.320000X-0.100000X0.320000X-0.100000X0.320000X0.100000X-0.320000X0.100000X0*%
%TD*%
%TA.AperFunction,ViaPad*%
%ADD21C,0.600000*%
%TD*%
%TA.AperFunction,Conductor*%
%ADD22C,0.200000*%
%TD*%
G04 APERTURE END LIST*
D10*
%TA.AperFunction,EtchedComponent*%
%TO.C,LED1*%
G36*
X143600000Y-88800000D02*
G01*
X143100000Y-88800000D01*
X143100000Y-88400000D01*
X143600000Y-88400000D01*
X143600000Y-88800000D01*
G37*
%TD.AperFunction*%
%TA.AperFunction,EtchedComponent*%
G36*
X143600000Y-89600000D02*
G01*
X143100000Y-89600000D01*
X143100000Y-89200000D01*
X143600000Y-89200000D01*
X143600000Y-89600000D01*
G37*
%TD.AperFunction*%
%TD*%
D11*
%TO.P,R4,1*%
%TO.N,Net-(J2-Pin_4)*%
X154037500Y-93000000D03*
%TO.P,R4,2*%
%TO.N,GND*%
X156962500Y-93000000D03*
%TD*%
D12*
%TO.P,U1,1,BOOT*%
%TO.N,unconnected-(U1-BOOT-Pad1)*%
X162880000Y-101500000D03*
%TO.P,U1,2,IOREF*%
%TO.N,unconnected-(U1-IOREF-Pad2)*%
X165420000Y-101500000D03*
%TO.P,U1,3,Reset*%
%TO.N,unconnected-(U1-Reset-Pad3)*%
X167960000Y-101500000D03*
%TO.P,U1,4,+3V3*%
%TO.N,Net-(INT1-B)*%
X170500000Y-101500000D03*
%TO.P,U1,5,+5V*%
%TO.N,Net-(U1-+5V)*%
X173040000Y-101500000D03*
%TO.P,U1,6,GND*%
%TO.N,unconnected-(U1-GND-Pad6)*%
X175580000Y-101500000D03*
%TO.P,U1,7,GND*%
%TO.N,unconnected-(U1-GND-Pad7)*%
X178120000Y-101500000D03*
%TO.P,U1,8,VIN*%
%TO.N,unconnected-(U1-VIN-Pad8)*%
X180660000Y-101500000D03*
%TD*%
D13*
%TO.P,C2,1*%
%TO.N,Net-(INT1-B)*%
X130237500Y-80250000D03*
%TO.P,C2,2*%
%TO.N,GND*%
X132137500Y-80250000D03*
%TD*%
%TO.P,C1,1*%
%TO.N,Net-(J1-Pin_1)*%
X166795000Y-85800000D03*
%TO.P,C1,2*%
%TO.N,GND*%
X168695000Y-85800000D03*
%TD*%
%TO.P,C6,1*%
%TO.N,Net-(J1-Pin_1)*%
X150587500Y-79750000D03*
%TO.P,C6,2*%
%TO.N,GND*%
X152487500Y-79750000D03*
%TD*%
D14*
%TO.P,J1,1,Pin_1*%
%TO.N,Net-(J1-Pin_1)*%
X167000000Y-75000000D03*
D15*
%TO.P,J1,2*%
%TO.N,N/C*%
X167000000Y-76000000D03*
%TO.P,J1,3*%
X167000000Y-77000000D03*
%TO.P,J1,4*%
X167000000Y-78000000D03*
%TD*%
D11*
%TO.P,R1,1*%
%TO.N,Net-(J2-Pin_3)*%
X154575000Y-97000000D03*
%TO.P,R1,2*%
%TO.N,Net-(D1-A)*%
X157500000Y-97000000D03*
%TD*%
D12*
%TO.P,U5,1,SCL*%
%TO.N,Net-(J2-Pin_4)*%
X157000000Y-70000000D03*
%TO.P,U5,2,SDA*%
%TO.N,Net-(J2-Pin_3)*%
X159540000Y-70000000D03*
%TO.P,U5,3,AREF*%
%TO.N,unconnected-(U5-AREF-Pad3)*%
X162080000Y-70000000D03*
%TO.P,U5,4,GND*%
%TO.N,unconnected-(U5-GND-Pad4)*%
X164620000Y-70000000D03*
%TO.P,U5,5,D13/SCK/CANRX0*%
%TO.N,unconnected-(U5-D13{slash}SCK{slash}CANRX0-Pad5)*%
X167160000Y-70000000D03*
%TO.P,U5,6,D12/CIPO*%
%TO.N,unconnected-(U5-D12{slash}CIPO-Pad6)*%
X169700000Y-70000000D03*
%TO.P,U5,7,~D11/COPI*%
%TO.N,unconnected-(U5-~D11{slash}COPI-Pad7)*%
X172240000Y-70000000D03*
%TO.P,U5,8,~D10/CS/CANTX0*%
%TO.N,unconnected-(U5-~D10{slash}CS{slash}CANTX0-Pad8)*%
X174780000Y-70000000D03*
%TO.P,U5,9,~D9*%
%TO.N,unconnected-(U5-~D9-Pad9)*%
X177320000Y-70000000D03*
%TO.P,U5,10,D8*%
%TO.N,Net-(J2-Pin_3)*%
X179860000Y-70000000D03*
%TD*%
D13*
%TO.P,C8,1*%
%TO.N,Net-(U1-+5V)*%
X182600000Y-95150000D03*
%TO.P,C8,2*%
%TO.N,GND*%
X184500000Y-95150000D03*
%TD*%
%TO.P,C7,1*%
%TO.N,Net-(J1-Pin_1)*%
X157500000Y-79500000D03*
%TO.P,C7,2*%
%TO.N,GND*%
X159400000Y-79500000D03*
%TD*%
D11*
%TO.P,R2,1*%
%TO.N,Net-(INT1-A)*%
X154537500Y-85000000D03*
%TO.P,R2,2*%
%TO.N,Net-(J2-Pin_3)*%
X157462500Y-85000000D03*
%TD*%
D13*
%TO.P,C3,1*%
%TO.N,Net-(U1-+5V)*%
X172795000Y-85800000D03*
%TO.P,C3,2*%
%TO.N,GND*%
X174695000Y-85800000D03*
%TD*%
D14*
%TO.P,J5,1,Pin_1*%
%TO.N,GND*%
X180000000Y-75500000D03*
D15*
%TO.P,J5,2,Pin_2*%
%TO.N,Net-(INT1-B)*%
X180000000Y-76500000D03*
%TO.P,J5,3,Pin_3*%
%TO.N,Net-(J2-Pin_3)*%
X180000000Y-77500000D03*
%TO.P,J5,4,Pin_4*%
%TO.N,Net-(J2-Pin_4)*%
X180000000Y-78500000D03*
%TD*%
D14*
%TO.P,J4,1,Pin_1*%
%TO.N,GND*%
X170500000Y-75000000D03*
D15*
%TO.P,J4,2,Pin_2*%
%TO.N,Net-(INT1-B)*%
X170500000Y-76000000D03*
%TO.P,J4,3,Pin_3*%
%TO.N,Net-(J2-Pin_3)*%
X170500000Y-77000000D03*
%TO.P,J4,4,Pin_4*%
%TO.N,Net-(J2-Pin_4)*%
X170500000Y-78000000D03*
%TD*%
D16*
%TO.P,U2,1,EN*%
%TO.N,Net-(INT1-B)*%
X143875000Y-78500000D03*
%TO.P,U2,2,IN*%
X143875000Y-79000000D03*
%TO.P,U2,3,OUT*%
%TO.N,Net-(J1-Pin_1)*%
X143875000Y-79500000D03*
%TO.P,U2,4,BP*%
%TO.N,GND*%
X143875000Y-80000000D03*
%TO.P,U2,5,GND*%
X143875000Y-80500000D03*
%TO.P,U2,6*%
%TO.N,N/C*%
X143875000Y-81000000D03*
%TO.P,U2,7*%
X143875000Y-81500000D03*
%TO.P,U2,8*%
X143875000Y-82000000D03*
%TO.P,U2,9*%
X146500000Y-82000000D03*
%TO.P,U2,10*%
X146500000Y-81500000D03*
%TO.P,U2,11*%
X146500000Y-81000000D03*
%TO.P,U2,12*%
X146500000Y-80500000D03*
%TO.P,U2,13*%
X146500000Y-80000000D03*
%TO.P,U2,14*%
X146500000Y-79500000D03*
%TO.P,U2,15*%
X146500000Y-79000000D03*
%TO.P,U2,16*%
X146500000Y-78500000D03*
%TD*%
D17*
%TO.P,LED1,1,A*%
%TO.N,Net-(J2-Pin_3)*%
X142700000Y-89000000D03*
%TO.P,LED1,2,B*%
%TO.N,Net-(INT1-B)*%
X144000000Y-89000000D03*
%TD*%
D18*
%TO.P,D1,1,K*%
%TO.N,GND*%
X142125000Y-98500000D03*
%TO.P,D1,2,A*%
%TO.N,Net-(D1-A)*%
X144000000Y-98500000D03*
%TD*%
D14*
%TO.P,J3,1,Pin_1*%
%TO.N,Net-(J2-Pin_3)*%
X149000000Y-90000000D03*
%TD*%
D13*
%TO.P,C4,1*%
%TO.N,Net-(INT1-B)*%
X137137500Y-80250000D03*
%TO.P,C4,2*%
%TO.N,GND*%
X139037500Y-80250000D03*
%TD*%
D19*
%TO.P,U4,1,B2*%
%TO.N,Net-(J2-Pin_3)*%
X174100000Y-94500000D03*
%TO.P,U4,2,GND*%
%TO.N,GND*%
X174100000Y-95150000D03*
%TO.P,U4,3,VCCA*%
%TO.N,Net-(J1-Pin_1)*%
X174100000Y-95800000D03*
%TO.P,U4,4,A2*%
%TO.N,Net-(J2-Pin_3)*%
X174100000Y-96450000D03*
%TO.P,U4,5,A1*%
X177500000Y-96450000D03*
%TO.P,U4,6,OE*%
%TO.N,Net-(J1-Pin_1)*%
X177500000Y-95800000D03*
%TO.P,U4,7,VCCB*%
%TO.N,Net-(U1-+5V)*%
X177500000Y-95150000D03*
%TO.P,U4,8,B1*%
%TO.N,Net-(J2-Pin_3)*%
X177500000Y-94500000D03*
%TD*%
D20*
%TO.P,U3,1*%
%TO.N,N/C*%
X178805000Y-83600000D03*
%TO.P,U3,2*%
X178805000Y-84400000D03*
%TO.P,U3,3*%
X178805000Y-85200000D03*
%TO.P,U3,4*%
X178805000Y-86000000D03*
%TO.P,U3,5*%
X178805000Y-86800000D03*
%TO.P,U3,6*%
X178805000Y-87600000D03*
%TO.P,U3,7*%
X178805000Y-88400000D03*
%TO.P,U3,8*%
X181195000Y-88400000D03*
%TO.P,U3,9*%
X181195000Y-87600000D03*
%TO.P,U3,10*%
X181195000Y-86800000D03*
%TO.P,U3,11*%
X181195000Y-86000000D03*
%TO.P,U3,12*%
X181195000Y-85200000D03*
%TO.P,U3,13*%
X181195000Y-84400000D03*
%TO.P,U3,14*%
X181195000Y-83600000D03*
%TD*%
D13*
%TO.P,C5,1*%
%TO.N,GND*%
X167200000Y-95650000D03*
%TO.P,C5,2*%
%TO.N,Net-(J1-Pin_1)*%
X169100000Y-95650000D03*
%TD*%
D11*
%TO.P,R3,1*%
%TO.N,Net-(J2-Pin_4)*%
X154537500Y-88290000D03*
%TO.P,R3,2*%
X157462500Y-88290000D03*
%TD*%
D14*
%TO.P,J2,1,Pin_1*%
%TO.N,GND*%
X175000000Y-75000000D03*
D15*
%TO.P,J2,2,Pin_2*%
%TO.N,Net-(INT1-B)*%
X175000000Y-76000000D03*
%TO.P,J2,3,Pin_3*%
%TO.N,Net-(J2-Pin_3)*%
X175000000Y-77000000D03*
%TO.P,J2,4,Pin_4*%
%TO.N,Net-(J2-Pin_4)*%
X175000000Y-78000000D03*
%TD*%
D21*
%TO.N,Net-(J2-Pin_3)*%
X173958578Y-93357108D03*
X174100000Y-96600003D03*
X174600735Y-93999265D03*
%TO.N,GND*%
X169900000Y-85000000D03*
X174695000Y-85800000D03*
%TO.N,Net-(J2-Pin_3)*%
X174600735Y-93999265D03*
X177500000Y-94500000D03*
X177994998Y-89948527D03*
%TO.N,Net-(J1-Pin_1)*%
X177500000Y-95800000D03*
%TO.N,GND*%
X144312500Y-80174999D03*
X152487500Y-79750000D03*
%TO.N,Net-(J1-Pin_1)*%
X150100000Y-79500000D03*
X142721507Y-79608727D03*
X167186918Y-79686917D03*
X167000000Y-88890000D03*
X166795000Y-85800000D03*
X169955607Y-95455607D03*
X174100000Y-95800000D03*
%TO.N,GND*%
X169628512Y-75329982D03*
X159400000Y-79500000D03*
%TO.N,Net-(INT1-B)*%
X144000000Y-89000000D03*
%TD*%
D22*
%TO.N,Net-(J2-Pin_3)*%
X174100000Y-93498530D02*
X173958578Y-93357108D01*
X174100000Y-94500000D02*
X174100000Y-93498530D01*
%TO.N,GND*%
X168695000Y-85800000D02*
X169100000Y-85800000D01*
X169100000Y-85800000D02*
X169900000Y-85000000D01*
%TO.N,Net-(J2-Pin_3)*%
X174100000Y-94500000D02*
X174600735Y-93999265D01*
X177500000Y-90443525D02*
X177994998Y-89948527D01*
X177500000Y-94500000D02*
X177500000Y-90443525D01*
%TO.N,Net-(J1-Pin_1)*%
X176684314Y-95800000D02*
X177500000Y-95800000D01*
X175442157Y-94557843D02*
X176684314Y-95800000D01*
X176365686Y-95800000D02*
X176032843Y-95467157D01*
X176000000Y-95115686D02*
X175442157Y-94557843D01*
X177500000Y-95800000D02*
X176365686Y-95800000D01*
X176032843Y-95467157D02*
X176000000Y-95434314D01*
X176000000Y-95434314D02*
X176000000Y-95115686D01*
%TO.N,GND*%
X178600000Y-89705000D02*
X178600000Y-96900000D01*
X178600000Y-96900000D02*
X176400000Y-96900000D01*
X176400000Y-96900000D02*
X176400000Y-96400000D01*
X176400000Y-96400000D02*
X175150000Y-95150000D01*
X174695000Y-85800000D02*
X178600000Y-89705000D01*
X175150000Y-95150000D02*
X174100000Y-95150000D01*
%TO.N,Net-(J2-Pin_3)*%
X177500000Y-96450000D02*
X177550000Y-96500000D01*
X178200000Y-96500000D02*
X177550000Y-96500000D01*
%TO.N,GND*%
X144137501Y-80000000D02*
X144312500Y-80174999D01*
X143875000Y-80000000D02*
X144137501Y-80000000D01*
%TO.N,Net-(J1-Pin_1)*%
X150350000Y-79750000D02*
X150100000Y-79500000D01*
X150587500Y-79750000D02*
X150350000Y-79750000D01*
X166275000Y-78774999D02*
X167186918Y-79686917D01*
X166275000Y-75100000D02*
X166275000Y-78774999D01*
X166375000Y-75000000D02*
X166275000Y-75100000D01*
X167000000Y-75000000D02*
X166375000Y-75000000D01*
X150587500Y-79750000D02*
X151612500Y-78725000D01*
X151612500Y-78725000D02*
X156725000Y-78725000D01*
X156725000Y-78725000D02*
X157500000Y-79500000D01*
X144500000Y-79500000D02*
X143875000Y-79500000D01*
X169100000Y-90990000D02*
X167000000Y-88890000D01*
X169100000Y-95650000D02*
X169100000Y-90990000D01*
X169761214Y-95650000D02*
X169955607Y-95455607D01*
X169100000Y-95650000D02*
X169761214Y-95650000D01*
%TO.N,GND*%
X170500000Y-75000000D02*
X169958494Y-75000000D01*
X169958494Y-75000000D02*
X169628512Y-75329982D01*
%TO.N,Net-(INT1-B)*%
X170500000Y-101500000D02*
X168500000Y-99500000D01*
X168500000Y-99500000D02*
X154500000Y-99500000D01*
X154500000Y-99500000D02*
X151600000Y-102400000D01*
X151600000Y-102400000D02*
X138334315Y-102400000D01*
X138334315Y-102400000D02*
X138100000Y-102165685D01*
X138100000Y-102165685D02*
X138100000Y-91750000D01*
X144000000Y-88050000D02*
X144000000Y-89000000D01*
X141900000Y-87950000D02*
X143900000Y-87950000D01*
X143900000Y-87950000D02*
X144000000Y-88050000D01*
X138100000Y-91750000D02*
X141900000Y-87950000D01*
%TO.N,Net-(U1-+5V)*%
X173040000Y-101500000D02*
X177240000Y-97300000D01*
X177240000Y-97300000D02*
X184200000Y-97300000D01*
X184200000Y-97300000D02*
X185300000Y-96200000D01*
X185300000Y-96200000D02*
X185300000Y-94300000D01*
X185300000Y-94300000D02*
X185125000Y-94125000D01*
X185125000Y-94125000D02*
X183625000Y-94125000D01*
X183625000Y-94125000D02*
X182600000Y-95150000D01*
%TO.N,GND*%
X179500000Y-75000000D02*
X175500000Y-75000000D01*
X170500000Y-75000000D02*
X175500000Y-75000000D01*
X175500000Y-75000000D02*
X175000000Y-75000000D01*
X152487500Y-79750000D02*
X153262500Y-80525000D01*
X153262500Y-80525000D02*
X158375000Y-80525000D01*
X158375000Y-80525000D02*
X159400000Y-79500000D01*
%TO.N,Net-(J2-Pin_3)*%
X157462500Y-85000000D02*
X153462500Y-81000000D01*
X153462500Y-81000000D02*
X150327756Y-81000000D01*
X149500000Y-76070230D02*
X156581230Y-68989000D01*
X150327756Y-81000000D02*
X149500000Y-80172244D01*
X149500000Y-80172244D02*
X149500000Y-76070230D01*
X158529000Y-68989000D02*
X159540000Y-70000000D01*
X156581230Y-68989000D02*
X158529000Y-68989000D01*
X149000000Y-90000000D02*
X152825000Y-86175000D01*
X152825000Y-86175000D02*
X156287500Y-86175000D01*
X156287500Y-86175000D02*
X157462500Y-85000000D01*
X142700000Y-89000000D02*
X142700000Y-90300000D01*
X142700000Y-90300000D02*
X139500000Y-93500000D01*
%TO.N,Net-(INT1-B)*%
X144000000Y-89000000D02*
X144912500Y-88087500D01*
X144912500Y-79249568D02*
X144162932Y-78500000D01*
X144912500Y-88087500D02*
X144912500Y-79249568D01*
X144162932Y-78500000D02*
X143875000Y-78500000D01*
%TO.N,GND*%
X168695000Y-85800000D02*
X162395000Y-79500000D01*
X162395000Y-79500000D02*
X159400000Y-79500000D01*
%TO.N,Net-(U1-+5V)*%
X177500000Y-95150000D02*
X176600000Y-95150000D01*
X176600000Y-95150000D02*
X172795000Y-91345000D01*
X172795000Y-91345000D02*
X172795000Y-85800000D01*
%TO.N,GND*%
X184500000Y-95150000D02*
X182750000Y-96900000D01*
X182750000Y-96900000D02*
X175900000Y-96900000D01*
X175100000Y-95150000D02*
X174100000Y-95150000D01*
X175900000Y-96900000D02*
X175200000Y-96200000D01*
X175200000Y-96200000D02*
X175200000Y-95250000D01*
X175200000Y-95250000D02*
X175100000Y-95150000D01*
%TO.N,Net-(J2-Pin_3)*%
X179860000Y-70000000D02*
X180725000Y-70865000D01*
X180725000Y-70865000D02*
X180725000Y-76800305D01*
X180725000Y-76800305D02*
X180025305Y-77500000D01*
X180025305Y-77500000D02*
X180000000Y-77500000D01*
X159540000Y-70000000D02*
X163415000Y-73875000D01*
X180300305Y-77225000D02*
X170725000Y-77225000D01*
X163415000Y-73875000D02*
X179825000Y-73875000D01*
X179825000Y-73875000D02*
X180725000Y-74775000D01*
X180725000Y-76800305D02*
X180300305Y-77225000D01*
X180725000Y-74775000D02*
X180725000Y-76800305D01*
X170725000Y-77225000D02*
X170500000Y-77000000D01*
%TO.N,Net-(J2-Pin_4)*%
X157000000Y-70000000D02*
X161275000Y-74275000D01*
X161275000Y-74275000D02*
X167725000Y-74275000D01*
X169898960Y-78000000D02*
X170500000Y-78000000D01*
X167725000Y-74275000D02*
X169500000Y-76050000D01*
X169500000Y-76050000D02*
X169500000Y-77601040D01*
X169500000Y-77601040D02*
X169898960Y-78000000D01*
%TO.N,Net-(INT1-B)*%
X170500000Y-101500000D02*
X168550055Y-103449945D01*
X168550055Y-103449945D02*
X139384260Y-103449945D01*
X130237500Y-94303185D02*
X130237500Y-80250000D01*
X139384260Y-103449945D02*
X130237500Y-94303185D01*
%TO.N,GND*%
X167200000Y-95650000D02*
X164675000Y-98175000D01*
X164675000Y-98175000D02*
X156952756Y-98175000D01*
X156400000Y-97622244D02*
X156400000Y-93562500D01*
X156952756Y-98175000D02*
X156400000Y-97622244D01*
X156400000Y-93562500D02*
X156962500Y-93000000D01*
X174100000Y-95150000D02*
X171109744Y-95150000D01*
X171109744Y-95150000D02*
X169584744Y-96675000D01*
X169584744Y-96675000D02*
X168225000Y-96675000D01*
X168225000Y-96675000D02*
X167200000Y-95650000D01*
%TO.N,Net-(INT1-B)*%
X137137500Y-80250000D02*
X138387500Y-79000000D01*
X138387500Y-79000000D02*
X143875000Y-79000000D01*
%TO.N,GND*%
X139037500Y-80250000D02*
X143625000Y-80250000D01*
X143625000Y-80250000D02*
X143875000Y-80500000D01*
X132137500Y-80250000D02*
X133162500Y-81275000D01*
X133162500Y-81275000D02*
X138012500Y-81275000D01*
X138012500Y-81275000D02*
X139037500Y-80250000D01*
%TO.N,Net-(INT1-B)*%
X130237500Y-80250000D02*
X131262500Y-79225000D01*
X131262500Y-79225000D02*
X136112500Y-79225000D01*
X136112500Y-79225000D02*
X137137500Y-80250000D01*
%TO.N,Net-(J2-Pin_4)*%
X157462500Y-88290000D02*
X167714744Y-88290000D01*
X167714744Y-88290000D02*
X170500000Y-85504744D01*
X170500000Y-85504744D02*
X170500000Y-78000000D01*
X154537500Y-88290000D02*
X157462500Y-88290000D01*
X154037500Y-93000000D02*
X154037500Y-88790000D01*
X154037500Y-88790000D02*
X154537500Y-88290000D01*
%TO.N,Net-(D1-A)*%
X144000000Y-98500000D02*
X143000000Y-99500000D01*
X157509744Y-91825000D02*
X157825000Y-92140256D01*
X143000000Y-99500000D02*
X141649268Y-99500000D01*
X141649268Y-99500000D02*
X141337500Y-99188232D01*
X141337500Y-97811768D02*
X143724268Y-95425000D01*
X153971814Y-95425000D02*
X156100000Y-93296814D01*
X141337500Y-99188232D02*
X141337500Y-97811768D01*
X143724268Y-95425000D02*
X153971814Y-95425000D01*
X156100000Y-93296814D02*
X156100000Y-92140256D01*
X156100000Y-92140256D02*
X156415256Y-91825000D01*
X157825000Y-92140256D02*
X157825000Y-96675000D01*
X156415256Y-91825000D02*
X157509744Y-91825000D01*
X157825000Y-96675000D02*
X157500000Y-97000000D01*
%TO.N,GND*%
X142125000Y-98500000D02*
X144800000Y-95825000D01*
X144800000Y-95825000D02*
X154137500Y-95825000D01*
X154137500Y-95825000D02*
X156962500Y-93000000D01*
%TO.N,Net-(J2-Pin_3)*%
X139500000Y-93500000D02*
X149000000Y-93500000D01*
X138500000Y-94500000D02*
X139500000Y-93500000D01*
X154575000Y-97000000D02*
X149575000Y-102000000D01*
X149575000Y-102000000D02*
X138500000Y-102000000D01*
X138500000Y-102000000D02*
X138500000Y-94500000D01*
X149000000Y-93500000D02*
X149000000Y-90000000D01*
%TO.N,Net-(J1-Pin_1)*%
X167000000Y-75000000D02*
X162000000Y-75000000D01*
X162000000Y-75000000D02*
X157500000Y-79500000D01*
%TO.N,Net-(J2-Pin_4)*%
X170500000Y-78000000D02*
X175000000Y-78000000D01*
%TO.N,Net-(J2-Pin_3)*%
X170500000Y-77000000D02*
X175000000Y-77000000D01*
%TO.N,Net-(INT1-B)*%
X170500000Y-76000000D02*
X175000000Y-76000000D01*
%TO.N,GND*%
X170500000Y-75000000D02*
X175000000Y-75000000D01*
%TO.N,Net-(J2-Pin_4)*%
X180000000Y-78500000D02*
X175500000Y-78500000D01*
X175500000Y-78500000D02*
X175000000Y-78000000D01*
%TO.N,Net-(J2-Pin_3)*%
X180000000Y-77500000D02*
X179398960Y-77500000D01*
X179398960Y-77500000D02*
X178898960Y-77000000D01*
X178898960Y-77000000D02*
X175000000Y-77000000D01*
%TO.N,Net-(INT1-B)*%
X180000000Y-76500000D02*
X179500000Y-76500000D01*
X179500000Y-76500000D02*
X179000000Y-76000000D01*
X179000000Y-76000000D02*
X175000000Y-76000000D01*
%TO.N,GND*%
X180000000Y-75500000D02*
X179500000Y-75000000D01*
%TD*%
M02*
