%TF.GenerationSoftware,KiCad,Pcbnew,8.0.5*%
%TF.CreationDate,2024-11-24T20:26:59-06:00*%
%TF.ProjectId,Milestone2,4d696c65-7374-46f6-9e65-322e6b696361,rev?*%
%TF.SameCoordinates,Original*%
%TF.FileFunction,Copper,L2,Bot*%
%TF.FilePolarity,Positive*%
%FSLAX46Y46*%
G04 Gerber Fmt 4.6, Leading zero omitted, Abs format (unit mm)*
G04 Created by KiCad (PCBNEW 8.0.5) date 2024-11-24 20:26:59*
%MOMM*%
%LPD*%
G01*
G04 APERTURE LIST*
%TA.AperFunction,ComponentPad*%
%ADD10C,1.422000*%
%TD*%
%TA.AperFunction,ComponentPad*%
%ADD11R,0.850000X0.850000*%
%TD*%
%TA.AperFunction,ComponentPad*%
%ADD12O,0.850000X0.850000*%
%TD*%
%TA.AperFunction,ViaPad*%
%ADD13C,0.600000*%
%TD*%
%TA.AperFunction,Conductor*%
%ADD14C,0.200000*%
%TD*%
G04 APERTURE END LIST*
D10*
%TO.P,U1,1,BOOT*%
%TO.N,unconnected-(U1-BOOT-Pad1)*%
X162880000Y-101500000D03*
%TO.P,U1,2,IOREF*%
%TO.N,unconnected-(U1-IOREF-Pad2)*%
X165420000Y-101500000D03*
%TO.P,U1,3,Reset*%
%TO.N,unconnected-(U1-Reset-Pad3)*%
X167960000Y-101500000D03*
%TO.P,U1,4,+3V3*%
%TO.N,Net-(INT1-B)*%
X170500000Y-101500000D03*
%TO.P,U1,5,+5V*%
%TO.N,Net-(U1-+5V)*%
X173040000Y-101500000D03*
%TO.P,U1,6,GND*%
%TO.N,unconnected-(U1-GND-Pad6)*%
X175580000Y-101500000D03*
%TO.P,U1,7,GND*%
%TO.N,unconnected-(U1-GND-Pad7)*%
X178120000Y-101500000D03*
%TO.P,U1,8,VIN*%
%TO.N,unconnected-(U1-VIN-Pad8)*%
X180660000Y-101500000D03*
%TD*%
D11*
%TO.P,J1,1,Pin_1*%
%TO.N,Net-(J1-Pin_1)*%
X167000000Y-75000000D03*
D12*
%TO.P,J1,2*%
%TO.N,N/C*%
X167000000Y-76000000D03*
%TO.P,J1,3*%
X167000000Y-77000000D03*
%TO.P,J1,4*%
X167000000Y-78000000D03*
%TD*%
D10*
%TO.P,U5,1,SCL*%
%TO.N,Net-(J2-Pin_4)*%
X157000000Y-70000000D03*
%TO.P,U5,2,SDA*%
%TO.N,Net-(J2-Pin_3)*%
X159540000Y-70000000D03*
%TO.P,U5,3,AREF*%
%TO.N,unconnected-(U5-AREF-Pad3)*%
X162080000Y-70000000D03*
%TO.P,U5,4,GND*%
%TO.N,unconnected-(U5-GND-Pad4)*%
X164620000Y-70000000D03*
%TO.P,U5,5,D13/SCK/CANRX0*%
%TO.N,unconnected-(U5-D13{slash}SCK{slash}CANRX0-Pad5)*%
X167160000Y-70000000D03*
%TO.P,U5,6,D12/CIPO*%
%TO.N,unconnected-(U5-D12{slash}CIPO-Pad6)*%
X169700000Y-70000000D03*
%TO.P,U5,7,~D11/COPI*%
%TO.N,unconnected-(U5-~D11{slash}COPI-Pad7)*%
X172240000Y-70000000D03*
%TO.P,U5,8,~D10/CS/CANTX0*%
%TO.N,unconnected-(U5-~D10{slash}CS{slash}CANTX0-Pad8)*%
X174780000Y-70000000D03*
%TO.P,U5,9,~D9*%
%TO.N,unconnected-(U5-~D9-Pad9)*%
X177320000Y-70000000D03*
%TO.P,U5,10,D8*%
%TO.N,Net-(J2-Pin_3)*%
X179860000Y-70000000D03*
%TD*%
D11*
%TO.P,J5,1,Pin_1*%
%TO.N,GND*%
X180000000Y-75500000D03*
D12*
%TO.P,J5,2,Pin_2*%
%TO.N,Net-(INT1-B)*%
X180000000Y-76500000D03*
%TO.P,J5,3,Pin_3*%
%TO.N,Net-(J2-Pin_3)*%
X180000000Y-77500000D03*
%TO.P,J5,4,Pin_4*%
%TO.N,Net-(J2-Pin_4)*%
X180000000Y-78500000D03*
%TD*%
D11*
%TO.P,J4,1,Pin_1*%
%TO.N,GND*%
X170500000Y-75000000D03*
D12*
%TO.P,J4,2,Pin_2*%
%TO.N,Net-(INT1-B)*%
X170500000Y-76000000D03*
%TO.P,J4,3,Pin_3*%
%TO.N,Net-(J2-Pin_3)*%
X170500000Y-77000000D03*
%TO.P,J4,4,Pin_4*%
%TO.N,Net-(J2-Pin_4)*%
X170500000Y-78000000D03*
%TD*%
D11*
%TO.P,J3,1,Pin_1*%
%TO.N,Net-(J2-Pin_3)*%
X149000000Y-90000000D03*
%TD*%
%TO.P,J2,1,Pin_1*%
%TO.N,GND*%
X175000000Y-75000000D03*
D12*
%TO.P,J2,2,Pin_2*%
%TO.N,Net-(INT1-B)*%
X175000000Y-76000000D03*
%TO.P,J2,3,Pin_3*%
%TO.N,Net-(J2-Pin_3)*%
X175000000Y-77000000D03*
%TO.P,J2,4,Pin_4*%
%TO.N,Net-(J2-Pin_4)*%
X175000000Y-78000000D03*
%TD*%
D13*
%TO.N,Net-(J2-Pin_3)*%
X173958578Y-93357108D03*
X174100000Y-96600003D03*
X174600735Y-93999265D03*
%TO.N,GND*%
X169900000Y-85000000D03*
X174695000Y-85800000D03*
%TO.N,Net-(J2-Pin_3)*%
X174600735Y-93999265D03*
X177500000Y-94500000D03*
X177994998Y-89948527D03*
%TO.N,Net-(J1-Pin_1)*%
X177500000Y-95800000D03*
%TO.N,GND*%
X144312500Y-80174999D03*
X152487500Y-79750000D03*
%TO.N,Net-(J1-Pin_1)*%
X150100000Y-79500000D03*
X142721507Y-79608727D03*
X167186918Y-79686917D03*
X167000000Y-88890000D03*
X166795000Y-85800000D03*
X169955607Y-95455607D03*
X174100000Y-95800000D03*
%TO.N,GND*%
X169628512Y-75329982D03*
X159400000Y-79500000D03*
%TO.N,Net-(INT1-B)*%
X144000000Y-89000000D03*
%TD*%
D14*
%TO.N,Net-(J2-Pin_3)*%
X179500000Y-94000000D02*
X179500000Y-97000000D01*
X179000000Y-93500000D02*
X179500000Y-94000000D01*
X179500000Y-97000000D02*
X178500000Y-98000000D01*
X173958578Y-93357108D02*
X175905637Y-93357108D01*
X176048529Y-93500000D02*
X179000000Y-93500000D01*
X175499997Y-98000000D02*
X174100000Y-96600003D01*
X175905637Y-93357108D02*
X176048529Y-93500000D01*
X178500000Y-98000000D02*
X175499997Y-98000000D01*
X178100000Y-96048529D02*
X177698529Y-96450000D01*
X174600735Y-93999265D02*
X176547794Y-93999265D01*
X176547794Y-93999265D02*
X178100000Y-95551471D01*
X178100000Y-95551471D02*
X178100000Y-96048529D01*
X177698529Y-96450000D02*
X177500000Y-96450000D01*
%TO.N,GND*%
X169900000Y-85000000D02*
X169775000Y-84875000D01*
X169775000Y-75699695D02*
X170199695Y-75275000D01*
X170199695Y-75275000D02*
X171249695Y-75275000D01*
X171249695Y-75275000D02*
X174695000Y-78720305D01*
X174695000Y-78720305D02*
X174695000Y-85800000D01*
X169775000Y-84875000D02*
X169775000Y-75699695D01*
%TO.N,Net-(J2-Pin_3)*%
X174600735Y-93999265D02*
X175101470Y-94500000D01*
X175101470Y-94500000D02*
X177500000Y-94500000D01*
X177500000Y-94500000D02*
X177500000Y-95000000D01*
X177994998Y-89948527D02*
X177994998Y-78903962D01*
X177994998Y-78903962D02*
X179398960Y-77500000D01*
X179398960Y-77500000D02*
X180000000Y-77500000D01*
%TO.N,Net-(J1-Pin_1)*%
X177500000Y-95800000D02*
X174100000Y-95800000D01*
%TO.N,GND*%
X144312500Y-80174999D02*
X152062501Y-80174999D01*
X152062501Y-80174999D02*
X152487500Y-79750000D01*
%TO.N,Net-(J1-Pin_1)*%
X142830234Y-79500000D02*
X142721507Y-79608727D01*
X150100000Y-79500000D02*
X142830234Y-79500000D01*
%TO.N,Net-(INT1-B)*%
X168500000Y-96062685D02*
X168500000Y-99500000D01*
X171225000Y-93337685D02*
X168500000Y-96062685D01*
X171225000Y-76123960D02*
X171225000Y-93337685D01*
X171101040Y-76000000D02*
X171225000Y-76123960D01*
X170500000Y-76000000D02*
X171101040Y-76000000D01*
X168500000Y-99500000D02*
X170500000Y-101500000D01*
%TO.N,Net-(J1-Pin_1)*%
X166795000Y-80078835D02*
X166795000Y-85800000D01*
X167186918Y-79686917D02*
X166795000Y-80078835D01*
X167000000Y-88890000D02*
X167000000Y-86005000D01*
X167000000Y-86005000D02*
X166795000Y-85800000D01*
X169955607Y-95455607D02*
X170300000Y-95800000D01*
X170300000Y-95800000D02*
X174100000Y-95800000D01*
%TO.N,GND*%
X169628512Y-76396793D02*
X166525305Y-79500000D01*
X169628512Y-75329982D02*
X169628512Y-76396793D01*
X166525305Y-79500000D02*
X159400000Y-79500000D01*
%TD*%
M02*
